<?xml version="1.0" encoding="UTF-8"?>
<svg id="Camada_2" data-name="Camada 2" xmlns="http://www.w3.org/2000/svg" viewBox="0 0 163 151.92">
  <defs>
    <style>
      .cls-1 {
        fill: #1c3a47;
        stroke-width: 0px;
      }
    </style>
  </defs>
  <g id="Layer_1" data-name="Layer 1">
    <g id="NewGroupe9">
      <g id="NewGroup2-17">
        <g>
          <path class="cls-1" d="M60.54,105.89c0,9.76-7.94,17.69-17.69,17.69s-17.69-7.94-17.69-17.69,7.94-17.69,17.69-17.69,17.69,7.94,17.69,17.69h0ZM80.82,79.65c-.34-.59-.89-1.04-1.54-1.27l-6.85-2.35c-.78-.27-1.63-.18-2.35.23l-1.95,1.13c-3.44-3.05-7.42-5.46-11.7-7.1v-2.82c0-.82-.36-1.6-.98-2.15l-5.46-4.76c-.52-.45-1.18-.7-1.87-.7h-8.99c-.69,0-1.35.25-1.87.7l-5.46,4.76c-.62.54-.98,1.32-.98,2.15v2.27c-4.39,1.46-8.5,3.73-12.1,6.67l-2.47-1.42c-.71-.41-1.57-.49-2.35-.22l-6.84,2.37c-.65.22-1.19.68-1.54,1.27l-4.47,7.8c-.34.6-.46,1.3-.32,1.97l1.41,7.11c.16.81.66,1.5,1.38,1.91l1.98,1.13c-.5,2.48-.75,5.01-.75,7.55,0,2.04.16,4.09.49,6.11l-2.46,1.43c-.71.41-1.21,1.11-1.36,1.92L.05,122.46c-.13.67-.01,1.37.33,1.97l4.51,7.77c.35.59.89,1.04,1.54,1.26l6.86,2.33c.78.26,1.63.18,2.34-.23l1.97-1.14c3.44,3.04,7.42,5.45,11.7,7.08v2.83c0,.82.36,1.6.99,2.14l5.47,4.75c.52.45,1.18.7,1.86.7h0l8.99-.02c.69,0,1.35-.25,1.87-.7l5.45-4.77c.62-.54.97-1.32.97-2.15v-2.25c4.34-1.45,8.43-3.7,11.99-6.6l2.44,1.4c.71.41,1.57.49,2.35.22l6.85-2.36c.65-.22,1.2-.68,1.54-1.27l4.48-7.79c.34-.6.46-1.29.33-1.97l-1.4-7.11c-.16-.81-.66-1.51-1.37-1.92l-1.94-1.12c.51-2.51.77-5.06.77-7.63,0-2.03-.16-4.06-.48-6.06l2.43-1.41c.71-.41,1.21-1.11,1.37-1.92l1.38-7.11c.13-.67.01-1.37-.33-1.97l-4.5-7.78h0Z"/>
          <path class="cls-1" d="M142.23,100.42c0,7.21-5.86,13.07-13.07,13.07s-13.07-5.86-13.07-13.07,5.86-13.07,13.07-13.07,13.07,5.86,13.07,13.07h0ZM159.13,79.77c-.34-.59-.89-1.04-1.54-1.27l-5.31-1.82c-.78-.27-1.63-.18-2.35.23l-1.12.65c-2.53-2.17-5.41-3.92-8.5-5.15v-1.75c0-.82-.36-1.6-.98-2.14l-4.23-3.69c-.52-.45-1.18-.7-1.87-.7h-6.96c-.69,0-1.35.25-1.87.7l-4.23,3.69c-.62.54-.98,1.32-.98,2.14v1.3c-3.17,1.11-6.15,2.76-8.79,4.85l-1.53-.88c-.71-.41-1.57-.49-2.35-.22l-5.3,1.84c-.65.22-1.19.68-1.54,1.27l-3.46,6.04c-.34.6-.46,1.3-.32,1.97l1.09,5.5c.16.81.66,1.5,1.38,1.91l1.13.65c-.34,1.82-.51,3.67-.51,5.52,0,1.47.11,2.94.32,4.4l-1.53.89c-.71.41-1.21,1.11-1.36,1.92l-1.06,5.51c-.13.67-.01,1.37.33,1.97l3.5,6.02c.34.59.89,1.04,1.54,1.26l5.31,1.81c.78.26,1.63.18,2.35-.23l1.13-.65c2.53,2.17,5.41,3.91,8.5,5.14v1.75c0,.82.36,1.6.98,2.14l4.24,3.68c.52.45,1.18.7,1.86.7h6.97c.69-.02,1.35-.27,1.87-.72l4.23-3.69c.62-.54.97-1.32.97-2.15v-1.28c3.14-1.1,6.09-2.73,8.71-4.8l1.51.87c.71.41,1.57.49,2.35.22l5.31-1.83c.65-.22,1.2-.68,1.54-1.27l3.47-6.04c.34-.6.46-1.29.33-1.97l-1.08-5.51c-.16-.81-.66-1.51-1.37-1.92l-1.11-.64c.34-1.84.52-3.71.52-5.59,0-1.46-.11-2.92-.32-4.36l1.51-.87c.71-.41,1.21-1.11,1.37-1.92l1.07-5.51c.13-.67.01-1.37-.33-1.97l-3.49-6.03h0Z"/>
          <path class="cls-1" d="M98.84,33.56c0,6.4-5.21,11.62-11.62,11.62s-11.61-5.21-11.61-11.62,5.21-11.61,11.61-11.61,11.62,5.21,11.62,11.61h0ZM96.63,60.87v-1.01c2.8-1,5.43-2.46,7.78-4.29l1.25.72c.71.41,1.57.49,2.35.22l4.87-1.68c.65-.22,1.2-.68,1.54-1.27l3.19-5.54c.34-.6.46-1.29.33-1.97l-.99-5.06c-.16-.81-.66-1.51-1.37-1.92l-.87-.5c.3-1.65.45-3.33.45-5.01,0-1.3-.09-2.6-.27-3.88l1.25-.72c.71-.41,1.21-1.11,1.37-1.92l.98-5.06c.13-.67.01-1.37-.33-1.97l-3.2-5.53c-.34-.59-.89-1.04-1.54-1.27l-4.88-1.67c-.78-.27-1.63-.18-2.35.23l-.88.51c-2.27-1.93-4.85-3.49-7.6-4.61v-1.45c0-.82-.36-1.6-.98-2.14l-3.89-3.38c-.52-.45-1.18-.7-1.87-.7h-6.39c-.69,0-1.35.25-1.87.7l-3.89,3.38c-.62.54-.98,1.32-.98,2.14v1.03c-2.83,1.01-5.49,2.48-7.86,4.34l-1.27-.73c-.71-.41-1.57-.49-2.35-.22l-4.87,1.69c-.65.23-1.19.68-1.54,1.27l-3.18,5.55c-.34.6-.46,1.29-.32,1.97l1,5.05c.16.81.66,1.5,1.38,1.91l.9.52c-.29,1.63-.44,3.29-.44,4.95,0,1.31.09,2.62.27,3.91l-1.27.74c-.71.41-1.21,1.11-1.36,1.92l-.98,5.06c-.13.67-.01,1.37.33,1.97l3.21,5.53c.35.59.89,1.04,1.54,1.26l4.88,1.66c.78.26,1.63.18,2.35-.23l.89-.52c2.27,1.92,4.85,3.48,7.6,4.59v1.45c0,.82.36,1.6.98,2.14l3.89,3.38c.52.45,1.18.7,1.86.7h6.4c.69-.01,1.35-.26,1.87-.72l3.88-3.39c.62-.54.97-1.32.97-2.15h0Z"/>
        </g>
      </g>
    </g>
  </g>
</svg>