<?xml version="1.0" encoding="UTF-8"?>
<svg id="Camada_2" data-name="Camada 2" xmlns="http://www.w3.org/2000/svg" viewBox="0 0 163 163">
  <defs>
    <style>
      .cls-1 {
        fill: #1c3a47;
        stroke-width: 0px;
      }
    </style>
  </defs>
  <g id="Layer_1" data-name="Layer 1">
    <g id="NewGroupe2">
      <g id="NewGroup2-24">
        <g>
          <path class="cls-1" d="M62.73,75.87v31.88c0,.35-.28.63-.63.63h-15.4c-.35,0-.63-.28-.63-.63v-33.41c0-.35.28-.63.63-.63h15.4c.35,0,.63.28.63.63v1.53h0ZM115.82,100.02l4.52-19.98c.67-2.96-.03-6.02-1.93-8.39-1.89-2.37-4.72-3.73-7.76-3.73h-15.39l.25-.53c2.57-5.52,2.9-11.72.91-17.48-1.21-3.51-4.52-5.87-8.24-5.87-2.73,0-5.25,1.24-6.92,3.41-1.66,2.17-2.21,4.93-1.5,7.57.35,1.31.18,2.69-.5,3.87l-1.08,1.89c-2.5,4.36-6.1,8-10.43,10.55-1.08-2.02-3.22-3.41-5.67-3.41h-15.4c-3.54,0-6.43,2.88-6.43,6.43v33.41c0,3.54,2.88,6.43,6.43,6.43h15.4c3.2,0,5.86-2.35,6.35-5.42l.05.05c2.22,2.16,5.15,3.35,8.25,3.35h23.88c7.33,0,13.58-4.99,15.2-12.14h0Z"/>
          <path class="cls-1" d="M94.91,8.87c-.36-1.04-1.27-1.79-2.37-1.94l-5.22-.68-2.4-4.68c-.5-.98-1.53-1.6-2.62-1.58-1.1.02-2.1.66-2.57,1.65l-2.26,4.75-5.19.83c-1.09.17-1.98.95-2.31,2.01-.32,1.05-.02,2.2.78,2.96l3.82,3.62-.81,5.2c-.17,1.09.29,2.18,1.19,2.82.5.35,1.08.53,1.67.53.48,0,.95-.12,1.39-.35l4.62-2.52,4.69,2.38c.98.5,2.16.4,3.05-.27.88-.66,1.31-1.77,1.11-2.85l-.97-5.17,3.71-3.73c.78-.78,1.04-1.94.69-2.98h0Z"/>
          <path class="cls-1" d="M117.64,36.09c.19,1.09.98,1.97,2.04,2.28l5.05,1.49,1.64,5c.34,1.05,1.25,1.81,2.34,1.97.14.02.27.03.41.03.95,0,1.84-.46,2.39-1.26l2.97-4.34h5.26c1.1-.01,2.11-.64,2.59-1.63.49-.99.37-2.17-.3-3.04l-3.21-4.17,1.62-5.01c.34-1.05.05-2.2-.74-2.97-.79-.77-1.95-1.02-2.99-.65l-4.96,1.76-4.26-3.08c-.89-.65-2.08-.73-3.05-.21-.98.52-1.57,1.54-1.54,2.64l.15,5.26-4.25,3.1c-.89.65-1.34,1.75-1.15,2.84h0Z"/>
          <path class="cls-1" d="M142.24,91.47l5.17-.97,3.73,3.71c.55.55,1.29.84,2.04.84.31,0,.63-.05.94-.16,1.04-.36,1.79-1.27,1.94-2.37l.68-5.22,4.68-2.4c.98-.5,1.59-1.52,1.58-2.62-.02-1.1-.66-2.1-1.65-2.57l-4.75-2.26-.83-5.19c-.17-1.09-.95-1.98-2.01-2.31-1.05-.32-2.2-.02-2.96.78l-3.62,3.82-5.2-.81c-1.09-.17-2.18.29-2.82,1.19-.63.9-.7,2.09-.17,3.05l2.52,4.62-2.38,4.69c-.5.98-.39,2.17.27,3.05.66.88,1.77,1.31,2.85,1.11h0Z"/>
          <path class="cls-1" d="M140.75,124.44c-.52-.98-1.54-1.57-2.64-1.54l-5.26.15-3.1-4.25c-.65-.89-1.75-1.33-2.84-1.15-1.09.19-1.97.98-2.28,2.04l-1.49,5.05-5,1.64c-1.05.34-1.81,1.25-1.97,2.34-.16,1.09.32,2.18,1.23,2.8l4.34,2.97v5.26c.01,1.1.64,2.11,1.63,2.59.4.2.84.3,1.28.3.63,0,1.25-.2,1.77-.6l4.17-3.21,5.01,1.62c1.05.34,2.2.05,2.97-.74.77-.79,1.02-1.95.65-2.99l-1.76-4.96,3.08-4.26c.65-.89.73-2.08.21-3.05h0Z"/>
          <path class="cls-1" d="M68.09,154.13c.36,1.04,1.27,1.79,2.37,1.94l5.22.68,2.4,4.68c.5.97,1.49,1.58,2.58,1.58.01,0,.03,0,.04,0,1.1-.02,2.1-.66,2.57-1.65l2.26-4.75,5.19-.83c1.09-.17,1.98-.95,2.31-2.01.32-1.05.02-2.2-.78-2.96l-3.82-3.62.81-5.2c.17-1.09-.29-2.18-1.19-2.82-.9-.63-2.09-.7-3.05-.17l-4.62,2.52-4.69-2.38c-.98-.5-2.17-.4-3.05.27-.88.66-1.31,1.77-1.11,2.85l.97,5.17-3.71,3.73c-.78.78-1.04,1.94-.69,2.98h0Z"/>
          <path class="cls-1" d="M45.36,126.91c-.19-1.09-.98-1.97-2.04-2.28l-5.05-1.49-1.64-5c-.34-1.05-1.25-1.81-2.34-1.97-1.09-.16-2.18.32-2.8,1.23l-2.97,4.34h-5.26c-1.1.01-2.11.64-2.59,1.63-.49.99-.37,2.17.3,3.04l3.21,4.17-1.62,5.01c-.34,1.05-.05,2.2.74,2.97.79.77,1.95,1.02,2.99.65l4.96-1.76,4.26,3.08c.5.36,1.1.55,1.7.55.46,0,.93-.11,1.35-.34.98-.52,1.57-1.54,1.54-2.64l-.15-5.26,4.25-3.1c.89-.65,1.34-1.75,1.15-2.84h0Z"/>
          <path class="cls-1" d="M20.76,71.53l-5.17.97-3.73-3.71c-.78-.78-1.94-1.05-2.98-.69-1.04.36-1.79,1.27-1.94,2.37l-.68,5.22-4.68,2.4c-.98.5-1.59,1.52-1.58,2.62.02,1.1.66,2.1,1.65,2.57l4.75,2.26.83,5.19c.18,1.09.95,1.98,2.01,2.31.28.09.57.13.85.13.78,0,1.55-.32,2.11-.91l3.62-3.82,5.2.81c1.09.17,2.18-.29,2.82-1.19.63-.9.7-2.09.17-3.05l-2.52-4.62,2.38-4.69c.5-.98.4-2.16-.27-3.05-.66-.88-1.77-1.31-2.85-1.11h0Z"/>
          <path class="cls-1" d="M22.25,38.57c.52.98,1.55,1.57,2.64,1.54l5.26-.15,3.1,4.25c.55.75,1.42,1.19,2.34,1.19.16,0,.33-.01.5-.04,1.09-.19,1.97-.98,2.28-2.04l1.49-5.05,5-1.64c1.05-.34,1.81-1.25,1.97-2.34.16-1.09-.32-2.18-1.23-2.8l-4.34-2.97v-5.26c-.01-1.1-.64-2.11-1.63-2.59-.99-.49-2.17-.37-3.04.31l-4.17,3.21-5.01-1.62c-1.05-.34-2.2-.05-2.97.74-.77.79-1.02,1.95-.65,2.99l1.76,4.96-3.08,4.26c-.65.89-.73,2.08-.21,3.05h0Z"/>
        </g>
      </g>
    </g>
  </g>
</svg>