<?xml version="1.0" encoding="UTF-8"?>
<svg id="Camada_2" data-name="Camada 2" xmlns="http://www.w3.org/2000/svg" viewBox="0 0 123.55 163">
  <defs>
    <style>
      .cls-1 {
        fill: #1c3a47;
        stroke-width: 0px;
      }
    </style>
  </defs>
  <g id="Layer_1" data-name="Layer 1">
    <g id="NewGroupe12">
      <g id="NewGroup2-14">
        <g>
          <path class="cls-1" d="M2.99,103.59c-3.15,7.32-3.84,15.62-1.95,23.36.01.06.03.11.05.17l10.39,33.82c.38,1.23,1.51,2.06,2.8,2.06h94.99c1.28,0,2.42-.84,2.8-2.06l10.39-33.82c.02-.05.03-.11.05-.17,1.89-7.74,1.2-16.04-1.95-23.36-5.84-13.59-19.18-22.38-33.97-22.38h-3.43s-.08,0-.11,0c-.04,0-.08,0-.12,0-.07,0-.13.01-.19.02-.03,0-.06,0-.09.01-.07.01-.14.03-.2.04-.03,0-.05.01-.07.02-.07.02-.13.04-.2.07-.02,0-.05.02-.07.03-.06.02-.13.05-.19.08-.02.01-.05.02-.07.04-.06.03-.11.06-.17.09-.03.02-.06.03-.08.05-.05.03-.1.06-.14.1-.03.02-.06.05-.09.07-.04.03-.08.07-.12.1-.03.03-.07.06-.1.09-.03.03-.06.06-.1.1-.03.04-.07.07-.1.11-.03.03-.05.06-.08.1-.03.04-.07.08-.1.13-.02.03-.04.07-.06.1-.03.05-.06.09-.09.14-.02.03-.04.07-.06.11-.02.05-.05.1-.07.15-.02.04-.03.08-.05.12-.02.05-.04.1-.05.15-.01.04-.03.09-.04.13-.01.05-.03.1-.04.14-.01.05-.02.1-.03.15,0,.05-.02.09-.02.14,0,.05,0,.1-.01.15,0,.03,0,.06,0,.09l-1.32,36.06-9.39,10.73v-35.13l4.09-7.08c.52-.9.52-2.02,0-2.92-.52-.9-1.49-1.46-2.53-1.46h-17.74c-1.04,0-2.01.56-2.53,1.46-.52.9-.52,2.02,0,2.92l4.53,7.85v35.17l-10.27-11.54-1.32-36.04c-.06-1.61-1.41-2.87-3.03-2.82-.04,0-.07,0-.11,0-.07,0-.15-.01-.22-.01h-3.43c-14.79,0-28.13,8.78-33.97,22.38h0Z"/>
          <path class="cls-1" d="M61.55,68.84c15.53,0,28.17-12.64,28.17-28.17v-12.5c0-15.53-12.64-28.17-28.17-28.17s-28.17,12.64-28.17,28.17v12.5c0,15.53,12.64,28.17,28.17,28.17h0Z"/>
        </g>
      </g>
    </g>
  </g>
</svg>