<?xml version="1.0" encoding="UTF-8"?>
<svg id="Camada_2" data-name="Camada 2" xmlns="http://www.w3.org/2000/svg" viewBox="0 0 163 162.77">
  <defs>
    <style>
      .cls-1 {
        fill: #1c3a47;
        stroke-width: 0px;
      }
    </style>
  </defs>
  <g id="Layer_1" data-name="Layer 1">
    <g id="NewGroupe21">
      <g id="NewGroup2-5">
        <g>
          <path class="cls-1" d="M77.58,71.1c-4-9.68-2.08-21.25,5.78-29.11,4.83-4.83,11.25-7.6,18.08-7.81,0,0,.02,0,.03,0,.67-.02,1.36-.02,2.05.02,6.64.32,12.89,3.08,17.6,7.79,2.72,2.72,4.78,5.91,6.12,9.48,2.38,6.33,2.2,13.22-.21,19.29-2.39-7.83-7.87-12.3-11.76-14.58.74-1.75,1.16-3.68,1.16-5.71,0-8-6.44-14.51-14.35-14.51s-14.35,6.51-14.35,14.51c0,2.12.45,4.13,1.26,5.94-3.92,2.4-9.16,6.93-11.4,14.69h0ZM127.52,81.13c.07-.09.14-.18.21-.27,6.9-8.82,8.83-20.74,4.84-31.38-1.63-4.34-4.13-8.21-7.43-11.51-5.71-5.71-13.3-9.07-21.36-9.45-.83-.04-1.67-.05-2.48-.02,0,0,0,0-.01,0-8.29.24-16.09,3.6-21.96,9.48-12.63,12.63-12.63,33.19,0,45.82,6.32,6.32,14.61,9.47,22.91,9.47s16.59-3.16,22.91-9.47c.85-.85,1.64-1.73,2.38-2.65h0Z"/>
          <path class="cls-1" d="M52.28,127.28s0,0,0,0l-26.31,26.31c-2.24,2.24-5.22,3.48-8.39,3.48-1.75,0-3.44-.38-4.98-1.09,14.7-15.42,34.88-36.46,41.54-43.09.67,1.14,1.15,2.39,1.4,3.7.76,3.89-.45,7.89-3.25,10.69h0ZM102.23,94.96c-1.58,0-2.85,1.28-2.85,2.85v7.67c-10.89-.68-21.04-5.24-28.83-13.03-7.95-7.95-12.55-18.37-13.07-29.53h7c1.58,0,2.85-1.28,2.85-2.85s-1.28-2.85-2.85-2.85h-6.91c.83-10.63,5.36-20.5,12.98-28.12,7.76-7.75,17.94-12.34,28.83-13.03v6.25c0,1.58,1.28,2.85,2.85,2.85s2.85-1.28,2.85-2.85v-6.26c10.88.69,21.1,5.3,28.83,13.03,4.57,4.57,8.02,9.92,10.27,15.91,1.49,3.98,2.39,8.09,2.71,12.21h-6.91c-1.58,0-2.85,1.28-2.85,2.85s1.28,2.85,2.85,2.85h6.99c-.54,10.93-5.05,21.53-13.06,29.53-7.79,7.79-17.93,12.35-28.83,13.03v-7.67c0-1.58-1.28-2.85-2.85-2.85h0ZM145.2,17.8c-1.58-1.58-3.28-3.1-5.03-4.5C128.16,3.67,113.06-.99,97.65.17c-14.48,1.09-28.11,7.35-38.39,17.62-10.13,10.13-16.38,23.57-17.58,37.82-1.13,13.4,2.21,26.83,9.45,38.05l-5.67,7.71c-5.16-.46-10.28,1.37-13.99,5.08l-26.31,26.31c-3.32,3.32-5.15,7.73-5.15,12.43s1.83,9.11,5.15,12.43c3.32,3.32,7.73,5.15,12.42,5.15s9.11-1.83,12.43-5.15l26.31-26.31c3.71-3.7,5.54-8.82,5.08-13.98l7.66-5.63c9.85,6.43,21.42,9.84,33.2,9.84,1.65,0,3.31-.07,4.96-.2,14.32-1.17,27.81-7.42,37.99-17.59,15.6-15.59,21.52-38.47,15.46-59.7-2.82-9.87-8.16-18.95-15.46-26.25h0Z"/>
        </g>
      </g>
    </g>
  </g>
</svg>